Coordinates
version=1
nRows=22
nColumns=24
inDegrees=yes

Units are S.I. units (second, meters, Newtons, ...)
Angles are in degrees.

endheader
time	pelvis_tilt	pelvis_list	pelvis_rotation	pelvis_tx	pelvis_ty	pelvis_tz	hip_flexion_r	hip_adduction_r	hip_rotation_r	knee_angle_r	ankle_angle_r	subtalar_angle_r	mtp_angle_r	hip_flexion_l	hip_adduction_l	hip_rotation_l	knee_angle_l	ankle_angle_l	subtalar_angle_l	mtp_angle_l	lumbar_extension	lumbar_bending	lumbar_rotation
      0.01000000	     63.74372671	     -4.56417517	      6.91013688	      0.83295114	      1.08641267	     -0.24846670	      8.54805592	     -5.14762266	    -11.98558044	     -8.35683381	     -3.38378667	     17.26735313	      0.00000000	      4.90471660	     -5.68233396	      3.74216131	    -63.26811307	     -0.34304289	     -2.50128412	      0.00000000	      0.00000000	      0.00000000	      0.00000000
      0.02000000	     63.77707461	     -4.57708609	      6.90411108	      0.83291608	      1.08643451	     -0.24843739	      8.51272070	     -5.12628288	    -11.97061107	     -8.35151434	     -3.38875295	     17.26985038	      0.00000000	      4.86572578	     -5.71296829	      3.71897497	    -63.25607910	     -0.33590507	     -2.50978121	      0.00000000	      0.00000000	      0.00000000	      0.00000000
      0.03000000	     63.79747079	     -4.59009410	      6.89399264	      0.83290575	      1.08645374	     -0.24840256	      8.49347850	     -5.10732796	    -11.95407166	     -8.35511934	     -3.39285232	     17.27431694	      0.00000000	      4.84091097	     -5.73990335	      3.69707132	    -63.25273477	     -0.33006452	     -2.51893800	      0.00000000	      0.00000000	      0.00000000	      0.00000000
      0.04000000	     63.79617439	     -4.60116073	      6.87994479	      0.83292604	      1.08645697	     -0.24837064	      8.50190610	     -5.09492681	    -11.93740348	     -8.36896289	     -3.39412661	     17.28143520	      0.00000000	      4.84239452	     -5.75799287	      3.67922892	    -63.25946036	     -0.32632149	     -2.52838614	      0.00000000	      0.00000000	      0.00000000	      0.00000000
      0.05000000	     63.76272406	     -4.60715260	      6.86369850	      0.83297459	      1.08642199	     -0.24835334	      8.55126060	     -5.09507707	    -11.92330172	     -8.39229401	     -3.38966177	     17.29172615	      0.00000000	      4.88494819	     -5.76042207	      3.66920236	    -63.27552963	     -0.32548636	     -2.53740482	      0.00000000	      0.00000000	      0.00000000	      0.00000000
      0.06000000	     63.68734219	     -4.60433639	      6.84950135	      0.83303383	      1.08632813	     -0.24835972	      8.65105257	     -5.11421941	    -11.91536935	     -8.42117279	     -3.37623286	     17.30520636	      0.00000000	      4.98043121	     -5.74091467	      3.67047951	    -63.29690298	     -0.32801001	     -2.54498736	      0.00000000	      0.00000000	      0.00000000	      0.00000000
      0.07000000	     63.56335368	     -4.58890774	      6.84361037	      0.83308999	      1.08618272	     -0.24839003	      8.80170657	     -5.15694992	    -11.91700448	     -8.44937797	     -3.35149208	     17.32130538	      0.00000000	      5.13174780	     -5.69684755	      3.68488795	    -63.31707210	     -0.33371098	     -2.55018849	      0.00000000	      0.00000000	      0.00000000	      0.00000000
      0.08000000	     63.39111065	     -4.55812551	      6.85171271	      0.83317627	      1.08604646	     -0.24842748	      8.99115749	     -5.22310218	    -11.92977518	     -8.47099930	     -3.31548718	     17.33908420	      0.00000000	      5.32820164	     -5.63197394	      3.71146975	    -63.32980721	     -0.34171326	     -2.55262669	      0.00000000	      0.00000000	      0.00000000	      0.00000000
      0.09000000	     63.18381858	     -4.51293002	      6.87507410	      0.83337912	      1.08601442	     -0.24843550	      9.19536957	     -5.30529690	    -11.95196040	     -8.48323011	     -3.27185711	     17.35764161	      0.00000000	      5.54467354	     -5.55671472	      3.74585863	    -63.33229696	     -0.35067536	     -2.55278754	      0.00000000	      0.00000000	      0.00000000	      0.00000000
      0.10000000	     62.97253258	     -4.46107582	      6.90732686	      0.83374537	      1.08613687	     -0.24838653	      9.38329862	     -5.38884715	    -11.97809865	     -8.48762918	     -3.22784904	     17.37644624	      0.00000000	      5.74652556	     -5.48535801	      3.78064330	    -63.32640273	     -0.35916646	     -2.55190995	      0.00000000	      0.00000000	      0.00000000	      0.00000000
      0.11000000	     62.80306335	     -4.41735930	      6.93496581	      0.83415029	      1.08633368	     -0.24830658	      9.52451980	     -5.45538089	    -12.00015374	     -8.48900445	     -3.19263352	     17.39534939	      0.00000000	      5.89866220	     -5.43170083	      3.80709821	    -63.31725675	     -0.36601268	     -2.55148299	      0.00000000	      0.00000000	      0.00000000	      0.00000000
      0.12000000	     62.71955069	     -4.39749094	      6.94375955	      0.83434289	      1.08643141	     -0.24826462	      9.59657063	     -5.48926257	    -12.01020241	     -8.49250984	     -3.17425987	     17.41426597	      0.00000000	      5.97453156	     -5.40561570	      3.81800371	    -63.31048775	     -0.37054028	     -2.55260182	      0.00000000	      0.00000000	      0.00000000	      0.00000000
      0.13000000	     62.74215659	     -4.40827164	      6.92786808	      0.83419618	      1.08633530	     -0.24830070	      9.58987281	     -5.48371361	    -12.00361923	     -8.50059081	     -3.17653834	     17.43278778	      0.00000000	      5.96237389	     -5.41146887	      3.81043232	    -63.30951261	     -0.37266406	     -2.55552476	      0.00000000	      0.00000000	      0.00000000	      0.00000000
      0.14000000	     62.85597683	     -4.44294393	      6.89406532	      0.83384849	      1.08613414	     -0.24838256	      9.50959044	     -5.44350038	    -11.98124552	     -8.51145447	     -3.19746232	     17.45006339	      0.00000000	      5.86829713	     -5.44732934	      3.78691734	    -63.31363047	     -0.37281378	     -2.55960298	      0.00000000	      0.00000000	      0.00000000	      0.00000000
      0.15000000	     63.02051522	     -4.48653698	      6.85721935	      0.83354316	      1.08600284	     -0.24844140	      9.37449218	     -5.38293227	    -11.94939025	     -8.51985527	     -3.23008254	     17.46507690	      0.00000000	      5.71549110	     -5.50448735	      3.75418632	    -63.31779399	     -0.37177556	     -2.56354664	      0.00000000	      0.00000000	      0.00000000	      0.00000000
      0.16000000	     63.19119921	     -4.52560622	      6.83119188	      0.83338574	      1.08602547	     -0.24843642	      9.21272071	     -5.32000916	    -11.91757442	     -8.51979554	     -3.26538065	     17.47715954	      0.00000000	      5.53811136	     -5.56872549	      3.72033372	    -63.31502710	     -0.37052358	     -2.56593071	      0.00000000	      0.00000000	      0.00000000	      0.00000000
      0.17000000	     63.33640215	     -4.55319117	      6.82222015	      0.83332173	      1.08614961	     -0.24838544	      9.05450320	     -5.26948328	    -11.89510952	     -8.50782706	     -3.29561955	     17.48636461	      0.00000000	      5.37083817	     -5.62480305	      3.69232392	    -63.30073926	     -0.37003559	     -2.56578370	      0.00000000	      0.00000000	      0.00000000	      0.00000000
      0.18000000	     63.44209075	     -4.56774028	      6.82799326	      0.83327550	      1.08628360	     -0.24834494	      8.92362376	     -5.23852064	    -11.88806624	     -8.48514861	     -3.31657941	     17.49339422	      0.00000000	      5.23864420	     -5.66233510	      3.67469653	    -63.27602736	     -0.37104075	     -2.56299732	      0.00000000	      0.00000000	      0.00000000	      0.00000000
      0.19000000	     63.50797605	     -4.57107619	      6.84141757	      0.83322545	      1.08638119	     -0.24835436	      8.83148139	     -5.22657472	    -11.89768857	     -8.45710617	     -3.32794942	     17.49912757	      0.00000000	      5.15127802	     -5.67897776	      3.66891455	    -63.24737708	     -0.37372890	     -2.55833187	      0.00000000	      0.00000000	      0.00000000	      0.00000000
      0.20000000	     63.54203100	     -4.56740924	      6.85582498	      0.83318291	      1.08643868	     -0.24839925	      8.77647768	     -5.22792652	    -11.92049409	     -8.43040398	     -3.33221472	     17.50412470	      0.00000000	      5.10404288	     -5.67943110	      3.67317448	    -63.22292430	     -0.37758204	     -2.55303415	      0.00000000	      0.00000000	      0.00000000	      0.00000000
      0.21000000	     63.55646163	     -4.56203356	      6.86794903	      0.83315794	      1.08646132	     -0.24843658	      8.74801586	     -5.23474646	    -11.94972808	     -8.40997401	     -3.33295279	     17.50843717	      0.00000000	      5.08333440	     -5.67209622	      3.68319505	    -63.20799617	     -0.38147041	     -2.54833970	      0.00000000	      0.00000000	      0.00000000	      0.00000000
      0.22000000	     63.56426592	     -4.55939324	      6.87741206	      0.83315084	      1.08645802	     -0.24844785	      8.73230262	     -5.23979564	    -11.97753650	     -8.39744128	     -3.33337174	     17.51178434	      0.00000000	      5.07351724	     -5.66556355	      3.69386511	    -63.20297718	     -0.38403980	     -2.54510606	      0.00000000	      0.00000000	      0.00000000	      0.00000000
